<?xml version="1.0" encoding="utf-8"?>
<!-- Generator: Adobe Illustrator 15.0.0, SVG Export Plug-In . SVG Version: 6.00 Build 0)  -->
<!DOCTYPE svg PUBLIC "-//W3C//DTD SVG 1.1//EN" "http://www.w3.org/Graphics/SVG/1.1/DTD/svg11.dtd">
<svg version="1.1" id="Layer_1" xmlns="http://www.w3.org/2000/svg" xmlns:xlink="http://www.w3.org/1999/xlink" x="0px" y="0px"
	 width="558.001px" height="560.339px" viewBox="0.328 140.171 558.001 560.339"
	 enable-background="new 0.328 140.171 558.001 560.339" xml:space="preserve">
<path d="M94.613,697.4L256.19,518.856c29.693,16.968,64.014,26.415,100.648,26.223c111.637-0.578,202.066-91.778,201.488-203.417
	c-0.58-111.638-91.779-202.066-203.418-201.488c-111.638,0.579-202.065,91.778-201.488,203.417
	c0.192,38.178,10.99,73.848,29.5,104.313L3.606,606.972c-1.928,1.735-3.085,4.242-3.278,6.941c0,0.192,0,0.192,0,0.386
	c0,2.507,0.964,5.013,2.892,6.748l77.51,76.739c1.928,1.929,4.435,2.893,7.134,2.699C90.372,700.485,92.878,699.328,94.613,697.4z
	 M354.909,159.456c101.035-0.386,183.559,81.367,183.941,182.4c0.389,101.033-81.365,183.557-182.398,183.941
	c-101.033,0.385-183.557-81.366-183.941-182.4C172.124,242.365,254.069,159.841,354.909,159.456z M239.608,508.252L119.101,641.485
	l-56.879-60.736l131.69-116.844C206.637,481.066,222.062,496.104,239.608,508.252z M24.044,614.492l30.85-27.38l57.651,61.507
	l-25.451,28.343L24.044,614.492z"/>
<text transform="matrix(1 0 0 1 298.6802 399.876)" font-family="'MyriadPro-Regular'" font-size="223.6617">–</text>
</svg>
